<?xml version="1.0" encoding="UTF-8"?>
<svg id="Layer_1" xmlns="http://www.w3.org/2000/svg" version="1.1" viewBox="0 0 1080 1080">
  <!-- Generator: Adobe Illustrator 30.4.0, SVG Export Plug-In . SVG Version: 2.1.4 Build 226)  -->
  <defs>
    <style>
      .st0 {
        fill: #2d5fff;
      }
    </style>
  </defs>
  <g>
    <g>
      <path class="st0" d="M116.4,686.5c0-1.2,0-2.7.3-3.9h33.4v1.5c0,12.5,12.2,22.7,35.8,22.7s35.8-7.2,35.8-22.1c0-32.2-103.2-2.4-103.2-65.6s24.5-48.6,66.5-48.6,67.1,20.6,67.1,46.8v3.3h-33.4v-1.8c0-12.2-10.1-22.7-33.7-22.7s-33.1,7.5-33.1,21.8c0,33.4,103.2,2.4,103.2,66s-23.6,48.9-69.2,48.9-69.5-21.8-69.5-46.2Z"/>
      <path class="st0" d="M303.3,728.5v-125.3h-36.1v-28.6h36.1v-41.2h33.7v41.2h40.3v28.6h-40.3v125.3h-33.7Z"/>
      <path class="st0" d="M398.2,728.5v-154h30.7l3,24.2h3c11-16.1,27.8-24.2,57-24.2v31.3c-3.9-.6-7.8-.6-11.6-.6-32.8,0-48.3,17.6-48.3,51.9v71.3h-33.7Z"/>
      <path class="st0" d="M494.4,651.6c0-54,34-81.2,80.3-81.2s75.8,29.2,75.8,78.2-.3,8.7-.9,11.9h-121.4c2.4,29.8,21.5,46.2,46.3,46.2s29.5-6.9,36.4-19.4h33.4c-9,28.4-35.8,45.4-69.5,45.4-49.5,0-80.3-30.7-80.3-81.2ZM615.8,636.9c-2.7-26.3-20.6-40.9-42.7-40.9s-40.6,14.3-44.2,40.9h86.8Z"/>
      <path class="st0" d="M668.7,686.5c0-1.2,0-2.7.3-3.9h33.4v1.5c0,12.5,12.2,22.7,35.8,22.7s35.8-7.2,35.8-22.1c0-32.2-103.2-2.4-103.2-65.6s24.5-48.6,66.5-48.6,67.1,20.6,67.1,46.8v3.3h-33.4v-1.8c0-12.2-10.1-22.7-33.7-22.7s-33.1,7.5-33.1,21.8c0,33.4,103.2,2.4,103.2,66s-23.6,48.9-69.2,48.9-69.5-21.8-69.5-46.2Z"/>
      <path class="st0" d="M824.8,686.5c0-1.2,0-2.7.3-3.9h33.4v1.5c0,12.5,12.2,22.7,35.8,22.7s35.8-7.2,35.8-22.1c0-32.2-103.2-2.4-103.2-65.6s24.5-48.6,66.5-48.6,67.1,20.6,67.1,46.8v3.3h-33.4v-1.8c0-12.2-10.1-22.7-33.7-22.7s-33.1,7.5-33.1,21.8c0,33.4,103.2,2.4,103.2,66s-23.6,48.9-69.2,48.9-69.5-21.8-69.5-46.2Z"/>
    </g>
    <g>
      <path class="st0" d="M116.4,919.2v-28.9h281.8v28.9H116.4Z"/>
      <path class="st0" d="M436.7,981.9v-213h33.7v213h-33.7Z"/>
      <path class="st0" d="M494.4,904.9c0-54,34-81.2,80.3-81.2s75.8,29.2,75.8,78.2-.3,8.7-.9,11.9h-121.4c2.4,29.8,21.5,46.2,46.3,46.2s29.5-6.9,36.4-19.4h33.4c-9,28.4-35.8,45.4-69.5,45.4-49.5,0-80.3-30.7-80.3-81.2ZM615.8,890.3c-2.7-26.3-20.6-40.9-42.7-40.9s-40.6,14.3-44.2,40.9h86.8Z"/>
      <path class="st0" d="M668.7,939.8c0-1.2,0-2.7.3-3.9h33.4v1.5c0,12.5,12.2,22.7,35.8,22.7s35.8-7.2,35.8-22.1c0-32.2-103.2-2.4-103.2-65.6s24.5-48.6,66.5-48.6,67.1,20.6,67.1,46.8v3.3h-33.4v-1.8c0-12.2-10.1-22.7-33.7-22.7s-33.1,7.5-33.1,21.8c0,33.4,103.2,2.4,103.2,66s-23.6,48.9-69.2,48.9-69.5-21.8-69.5-46.2Z"/>
      <path class="st0" d="M824.8,939.8c0-1.2,0-2.7.3-3.9h33.4v1.5c0,12.5,12.2,22.7,35.8,22.7s35.8-7.2,35.8-22.1c0-32.2-103.2-2.4-103.2-65.6s24.5-48.6,66.5-48.6,67.1,20.6,67.1,46.8v3.3h-33.4v-1.8c0-12.2-10.1-22.7-33.7-22.7s-33.1,7.5-33.1,21.8c0,33.4,103.2,2.4,103.2,66s-23.6,48.9-69.2,48.9-69.5-21.8-69.5-46.2Z"/>
    </g>
  </g>
  <path class="st0" d="M825.2,75.9c-179.6,0-91.9,291.8-186.4,291.8s-61.6-33.7-61.6-93.6,29.5-95.3,64.1-95.3h5v-94.4h-9.3c-39.1,0-73.7,16.2-97.7,50.6-24.4-34.5-59.8-53.2-101.8-53.2-178.8,0-94.4,291.8-185.5,291.8s-62.4-37.9-62.4-101.2,28.7-101.2,64.1-101.2h4.2v-94.4c-3.4-.9-7.6-.9-11-.9-69.1,0-130.7,53.1-130.7,196.5s57.3,195.6,138.3,195.6c179.6,0,91.9-291.8,186.4-291.8s61.6,33.7,61.6,93.6-29.5,95.3-64.1,95.3h-5v94.4h9.3c39.1,0,73.7-16.2,97.7-50.6,24.4,34.5,59.8,53.2,101.8,53.2,178.8,0,94.4-291.8,185.5-291.8s62.4,37.9,62.4,101.2-28.7,101.2-64.1,101.2h-4.2v94.4c3.4.9,7.6.9,11,.9,69.1,0,130.7-53.1,130.7-196.5s-57.3-195.6-138.3-195.6Z"/>
</svg>